<mxfile host="app.diagrams.net" agent="Mozilla/5.0 (Windows NT 10.0; Win64; x64) AppleWebKit/537.36 (KHTML, like Gecko) Chrome/131.0.0.0 Safari/537.36" version="24.8.8" pages="4">
  <diagram name="packages" id="jxlmO-A9DLc2cjduSgGs">
    <mxGraphModel dx="819" dy="426" grid="1" gridSize="10" guides="1" tooltips="1" connect="1" arrows="1" fold="1" page="1" pageScale="1" pageWidth="827" pageHeight="1169" math="0" shadow="0">
      <root>
        <mxCell id="0" />
        <mxCell id="1" parent="0" />
        <mxCell id="EBpvr-aMACQqT9NIf_rm-30" value="" style="rounded=0;whiteSpace=wrap;html=1;strokeColor=none;" parent="1" vertex="1">
          <mxGeometry x="10" y="80" width="180" height="286.5" as="geometry" />
        </mxCell>
        <mxCell id="EBpvr-aMACQqT9NIf_rm-12" style="edgeStyle=orthogonalEdgeStyle;rounded=0;orthogonalLoop=1;jettySize=auto;html=1;entryX=0.5;entryY=0;entryDx=0;entryDy=0;flowAnimation=1;" parent="1" source="EBpvr-aMACQqT9NIf_rm-1" target="EBpvr-aMACQqT9NIf_rm-2" edge="1">
          <mxGeometry relative="1" as="geometry" />
        </mxCell>
        <mxCell id="EBpvr-aMACQqT9NIf_rm-1" value="Service" style="rounded=0;whiteSpace=wrap;html=1;fillColor=#b0e3e6;strokeColor=none;shadow=1;fontStyle=1" parent="1" vertex="1">
          <mxGeometry x="40" y="96.5" width="120" height="30" as="geometry" />
        </mxCell>
        <mxCell id="EBpvr-aMACQqT9NIf_rm-11" style="edgeStyle=orthogonalEdgeStyle;rounded=0;orthogonalLoop=1;jettySize=auto;html=1;entryX=0.5;entryY=0;entryDx=0;entryDy=0;flowAnimation=1;" parent="1" source="EBpvr-aMACQqT9NIf_rm-2" target="EBpvr-aMACQqT9NIf_rm-3" edge="1">
          <mxGeometry relative="1" as="geometry" />
        </mxCell>
        <mxCell id="EBpvr-aMACQqT9NIf_rm-2" value="Repository" style="rounded=0;whiteSpace=wrap;html=1;fillColor=#b0e3e6;strokeColor=none;shadow=1;fontStyle=1" parent="1" vertex="1">
          <mxGeometry x="40" y="166.5" width="120" height="30" as="geometry" />
        </mxCell>
        <mxCell id="EBpvr-aMACQqT9NIf_rm-3" value="DAO" style="rounded=0;whiteSpace=wrap;html=1;fillColor=#b0e3e6;strokeColor=none;shadow=1;fontStyle=1" parent="1" vertex="1">
          <mxGeometry x="40" y="236.5" width="120" height="30" as="geometry" />
        </mxCell>
        <mxCell id="EBpvr-aMACQqT9NIf_rm-4" value="" style="verticalLabelPosition=bottom;html=1;verticalAlign=top;align=center;strokeColor=none;fillColor=#00BEF2;shape=mxgraph.azure.sql_database;" parent="1" vertex="1">
          <mxGeometry x="135" y="306.5" width="30" height="42" as="geometry" />
        </mxCell>
        <mxCell id="EBpvr-aMACQqT9NIf_rm-5" value="" style="shape=image;verticalLabelPosition=bottom;labelBackgroundColor=default;verticalAlign=top;aspect=fixed;imageAspect=0;image=https://cdn-icons-png.flaticon.com/512/6133/6133884.png;" parent="1" vertex="1">
          <mxGeometry x="20" y="306.5" width="42" height="42" as="geometry" />
        </mxCell>
        <mxCell id="EBpvr-aMACQqT9NIf_rm-6" value="" style="shape=image;verticalLabelPosition=bottom;labelBackgroundColor=default;verticalAlign=top;aspect=fixed;imageAspect=0;image=https://cdn-icons-png.flaticon.com/512/136/136525.png;" parent="1" vertex="1">
          <mxGeometry x="79" y="306.5" width="42" height="42" as="geometry" />
        </mxCell>
        <mxCell id="EBpvr-aMACQqT9NIf_rm-8" value="" style="endArrow=classic;html=1;rounded=0;exitX=0.5;exitY=1;exitDx=0;exitDy=0;entryX=0.5;entryY=0;entryDx=0;entryDy=0;flowAnimation=1;" parent="1" source="EBpvr-aMACQqT9NIf_rm-3" target="EBpvr-aMACQqT9NIf_rm-5" edge="1">
          <mxGeometry width="50" height="50" relative="1" as="geometry">
            <mxPoint y="326.5" as="sourcePoint" />
            <mxPoint x="50" y="276.5" as="targetPoint" />
          </mxGeometry>
        </mxCell>
        <mxCell id="EBpvr-aMACQqT9NIf_rm-9" value="" style="endArrow=classic;html=1;rounded=0;exitX=0.5;exitY=1;exitDx=0;exitDy=0;entryX=0.5;entryY=0;entryDx=0;entryDy=0;flowAnimation=1;" parent="1" source="EBpvr-aMACQqT9NIf_rm-3" target="EBpvr-aMACQqT9NIf_rm-6" edge="1">
          <mxGeometry width="50" height="50" relative="1" as="geometry">
            <mxPoint x="135" y="256.5" as="sourcePoint" />
            <mxPoint x="91" y="296.5" as="targetPoint" />
          </mxGeometry>
        </mxCell>
        <mxCell id="EBpvr-aMACQqT9NIf_rm-10" value="" style="endArrow=classic;html=1;rounded=0;entryX=0.5;entryY=0;entryDx=0;entryDy=0;flowAnimation=1;entryPerimeter=0;" parent="1" target="EBpvr-aMACQqT9NIf_rm-4" edge="1">
          <mxGeometry width="50" height="50" relative="1" as="geometry">
            <mxPoint x="100" y="266.5" as="sourcePoint" />
            <mxPoint x="110" y="316.5" as="targetPoint" />
          </mxGeometry>
        </mxCell>
        <mxCell id="EBpvr-aMACQqT9NIf_rm-36" value="" style="group" parent="1" vertex="1" connectable="0">
          <mxGeometry x="98" y="128" width="42" height="30" as="geometry" />
        </mxCell>
        <mxCell id="EBpvr-aMACQqT9NIf_rm-32" value="" style="rhombus;whiteSpace=wrap;html=1;fillColor=#fad7ac;strokeColor=#b46504;" parent="EBpvr-aMACQqT9NIf_rm-36" vertex="1">
          <mxGeometry y="3" width="5" height="5" as="geometry" />
        </mxCell>
        <mxCell id="EBpvr-aMACQqT9NIf_rm-33" value="" style="rhombus;whiteSpace=wrap;html=1;fillColor=#fad7ac;strokeColor=#b46504;" parent="EBpvr-aMACQqT9NIf_rm-36" vertex="1">
          <mxGeometry y="12" width="5" height="5" as="geometry" />
        </mxCell>
        <mxCell id="EBpvr-aMACQqT9NIf_rm-34" value="" style="rhombus;whiteSpace=wrap;html=1;fillColor=#fad7ac;strokeColor=#b46504;" parent="EBpvr-aMACQqT9NIf_rm-36" vertex="1">
          <mxGeometry y="22" width="5" height="5" as="geometry" />
        </mxCell>
        <mxCell id="EBpvr-aMACQqT9NIf_rm-35" value="DTO" style="text;html=1;align=center;verticalAlign=middle;resizable=0;points=[];autosize=1;strokeColor=none;fillColor=none;fontStyle=2;fontColor=#B46504;fontSize=10;" parent="EBpvr-aMACQqT9NIf_rm-36" vertex="1">
          <mxGeometry x="2" width="40" height="30" as="geometry" />
        </mxCell>
        <mxCell id="EBpvr-aMACQqT9NIf_rm-37" value="" style="group" parent="1" vertex="1" connectable="0">
          <mxGeometry x="98" y="198" width="42" height="30" as="geometry" />
        </mxCell>
        <mxCell id="EBpvr-aMACQqT9NIf_rm-38" value="" style="rhombus;whiteSpace=wrap;html=1;fillColor=#fad7ac;strokeColor=#b46504;" parent="EBpvr-aMACQqT9NIf_rm-37" vertex="1">
          <mxGeometry y="3" width="5" height="5" as="geometry" />
        </mxCell>
        <mxCell id="EBpvr-aMACQqT9NIf_rm-39" value="" style="rhombus;whiteSpace=wrap;html=1;fillColor=#fad7ac;strokeColor=#b46504;" parent="EBpvr-aMACQqT9NIf_rm-37" vertex="1">
          <mxGeometry y="12" width="5" height="5" as="geometry" />
        </mxCell>
        <mxCell id="EBpvr-aMACQqT9NIf_rm-40" value="" style="rhombus;whiteSpace=wrap;html=1;fillColor=#fad7ac;strokeColor=#b46504;" parent="EBpvr-aMACQqT9NIf_rm-37" vertex="1">
          <mxGeometry y="22" width="5" height="5" as="geometry" />
        </mxCell>
        <mxCell id="EBpvr-aMACQqT9NIf_rm-41" value="DTO" style="text;html=1;align=center;verticalAlign=middle;resizable=0;points=[];autosize=1;strokeColor=none;fillColor=none;fontStyle=2;fontColor=#B46504;fontSize=10;" parent="EBpvr-aMACQqT9NIf_rm-37" vertex="1">
          <mxGeometry x="2" width="40" height="30" as="geometry" />
        </mxCell>
      </root>
    </mxGraphModel>
  </diagram>
  <diagram id="Efj74kMZRPsQSCBAvqiy" name="sockets">
    <mxGraphModel dx="1434" dy="746" grid="1" gridSize="10" guides="1" tooltips="1" connect="1" arrows="1" fold="1" page="1" pageScale="1" pageWidth="827" pageHeight="1169" math="0" shadow="0">
      <root>
        <mxCell id="0" />
        <mxCell id="1" parent="0" />
        <mxCell id="ePayg9SpCz2RAG4ZGLyJ-24" value="" style="rounded=0;whiteSpace=wrap;html=1;strokeColor=none;fillColor=#f5f5f5;fontColor=#333333;" parent="1" vertex="1">
          <mxGeometry x="3" y="11" width="167" height="105" as="geometry" />
        </mxCell>
        <mxCell id="ePayg9SpCz2RAG4ZGLyJ-3" value="" style="verticalLabelPosition=bottom;sketch=0;aspect=fixed;html=1;verticalAlign=top;strokeColor=none;align=center;outlineConnect=0;shape=mxgraph.citrix.laptop_2;" parent="1" vertex="1">
          <mxGeometry x="10" y="20" width="116" height="86.5" as="geometry" />
        </mxCell>
        <mxCell id="ePayg9SpCz2RAG4ZGLyJ-15" value="" style="group" parent="1" vertex="1" connectable="0">
          <mxGeometry x="85" y="54" width="20" height="20" as="geometry" />
        </mxCell>
        <mxCell id="ePayg9SpCz2RAG4ZGLyJ-10" value="" style="whiteSpace=wrap;html=1;aspect=fixed;fillColor=#f5f5f5;fontColor=#333333;strokeColor=none;shadow=1;" parent="ePayg9SpCz2RAG4ZGLyJ-15" vertex="1">
          <mxGeometry width="20" height="20" as="geometry" />
        </mxCell>
        <mxCell id="ePayg9SpCz2RAG4ZGLyJ-5" value="3306" style="shape=image;verticalLabelPosition=bottom;labelBackgroundColor=none;verticalAlign=top;aspect=fixed;imageAspect=0;image=https://upload.wikimedia.org/wikipedia/commons/thumb/0/0a/MySQL_textlogo.svg/2560px-MySQL_textlogo.svg.png;fontStyle=1;fontSize=6;spacingTop=-4;shadow=1;" parent="ePayg9SpCz2RAG4ZGLyJ-15" vertex="1">
          <mxGeometry x="2.7899999999999636" y="3.9999999999999956" width="14.41" height="4.24" as="geometry" />
        </mxCell>
        <mxCell id="ePayg9SpCz2RAG4ZGLyJ-20" value="" style="group" parent="1" vertex="1" connectable="0">
          <mxGeometry x="68" y="37" width="20" height="20" as="geometry" />
        </mxCell>
        <mxCell id="ePayg9SpCz2RAG4ZGLyJ-17" value="" style="whiteSpace=wrap;html=1;aspect=fixed;fillColor=#f5f5f5;fontColor=#333333;strokeColor=none;shadow=1;" parent="ePayg9SpCz2RAG4ZGLyJ-20" vertex="1">
          <mxGeometry width="20" height="20" as="geometry" />
        </mxCell>
        <mxCell id="ePayg9SpCz2RAG4ZGLyJ-19" value="8080" style="shape=image;verticalLabelPosition=bottom;labelBackgroundColor=none;verticalAlign=top;aspect=fixed;imageAspect=0;image=https://seeklogo.com/images/J/java-logo-CE0198242E-seeklogo.com.png;fontSize=6;fontStyle=1;spacingTop=-5;" parent="ePayg9SpCz2RAG4ZGLyJ-20" vertex="1">
          <mxGeometry x="2" y="1" width="15.31" height="10" as="geometry" />
        </mxCell>
        <mxCell id="ePayg9SpCz2RAG4ZGLyJ-21" value="&lt;b style=&quot;&quot;&gt;&lt;font style=&quot;font-size: 6px;&quot;&gt;192.168.0.1&lt;/font&gt;&lt;/b&gt;" style="shape=image;html=1;verticalAlign=top;verticalLabelPosition=bottom;labelBackgroundColor=none;imageAspect=0;aspect=fixed;image=https://cdn1.iconfinder.com/data/icons/bootstrap-vol-2/16/ethernet-128.png;spacingTop=-6;" parent="1" vertex="1">
          <mxGeometry x="140" y="60.5" width="13.5" height="13.5" as="geometry" />
        </mxCell>
        <mxCell id="fYqTDlpJ6KkWf2DXHgVO-1" value="" style="rounded=0;whiteSpace=wrap;html=1;strokeColor=none;fillColor=#f5f5f5;fontColor=#333333;" vertex="1" parent="1">
          <mxGeometry y="168" width="660" height="262" as="geometry" />
        </mxCell>
        <mxCell id="fYqTDlpJ6KkWf2DXHgVO-2" value="&lt;b&gt;Cliente&lt;/b&gt;&lt;br&gt;192.168.0.1&lt;b&gt;:&lt;font color=&quot;#cc0000&quot;&gt;8081&lt;/font&gt;&lt;/b&gt;" style="image;points=[];aspect=fixed;html=1;align=center;shadow=0;dashed=0;image=img/lib/allied_telesis/computer_and_terminals/Laptop.svg;labelBackgroundColor=none;" vertex="1" parent="1">
          <mxGeometry x="36.97" y="307" width="68.03" height="69" as="geometry" />
        </mxCell>
        <mxCell id="fYqTDlpJ6KkWf2DXHgVO-3" value="&lt;font style=&quot;font-size: 10px;&quot;&gt;ServerSocket(&lt;b&gt;&lt;font color=&quot;#009900&quot;&gt;8080&lt;/font&gt;&lt;/b&gt;)&lt;br&gt;ServerSocket.accept()&lt;/font&gt;" style="text;html=1;align=left;verticalAlign=middle;resizable=0;points=[];autosize=1;strokeColor=none;fillColor=none;fontFamily=Courier New;" vertex="1" parent="1">
          <mxGeometry x="420" y="252" width="150" height="40" as="geometry" />
        </mxCell>
        <mxCell id="fYqTDlpJ6KkWf2DXHgVO-4" value="&lt;span style=&quot;font-size: 10px;&quot;&gt;InputStream&lt;/span&gt;&lt;div&gt;&lt;span style=&quot;font-size: 10px;&quot;&gt;&lt;br&gt;&lt;/span&gt;&lt;/div&gt;&lt;div&gt;&lt;span style=&quot;font-size: 10px;&quot;&gt;OutputStream&lt;/span&gt;&lt;/div&gt;" style="text;html=1;align=left;verticalAlign=middle;resizable=0;points=[];autosize=1;strokeColor=none;fillColor=none;fontFamily=Courier New;" vertex="1" parent="1">
          <mxGeometry x="420" y="326" width="100" height="60" as="geometry" />
        </mxCell>
        <mxCell id="fYqTDlpJ6KkWf2DXHgVO-5" value="" style="curved=1;endArrow=classic;html=1;rounded=0;sketch=1;curveFitting=1;jiggle=2;" edge="1" parent="1">
          <mxGeometry width="50" height="50" relative="1" as="geometry">
            <mxPoint x="417" y="265" as="sourcePoint" />
            <mxPoint x="408" y="186" as="targetPoint" />
            <Array as="points">
              <mxPoint x="383" y="252" />
              <mxPoint x="393" y="202" />
            </Array>
          </mxGeometry>
        </mxCell>
        <mxCell id="fYqTDlpJ6KkWf2DXHgVO-6" value="&lt;font data-font-src=&quot;https://fonts.googleapis.com/css?family=Architects+Daughter&quot; face=&quot;Architects Daughter&quot;&gt;Levanta el servidor en el puerto 8080&lt;/font&gt;" style="text;html=1;align=left;verticalAlign=middle;resizable=0;points=[];autosize=1;strokeColor=none;fillColor=none;fontFamily=Comic Sans MS;" vertex="1" parent="1">
          <mxGeometry x="413" y="170" width="240" height="30" as="geometry" />
        </mxCell>
        <mxCell id="fYqTDlpJ6KkWf2DXHgVO-7" value="" style="curved=1;endArrow=classic;html=1;rounded=0;sketch=1;curveFitting=1;jiggle=2;strokeWidth=1;" edge="1" parent="1">
          <mxGeometry width="50" height="50" relative="1" as="geometry">
            <mxPoint x="419" y="281" as="sourcePoint" />
            <mxPoint x="412" y="220" as="targetPoint" />
            <Array as="points">
              <mxPoint x="370" y="259" />
              <mxPoint x="375" y="219" />
            </Array>
          </mxGeometry>
        </mxCell>
        <mxCell id="fYqTDlpJ6KkWf2DXHgVO-8" value="Espera que algún cliente se conecte" style="text;html=1;align=left;verticalAlign=middle;resizable=0;points=[];autosize=1;strokeColor=none;fillColor=none;fontFamily=Architects Daughter;" vertex="1" parent="1">
          <mxGeometry x="413" y="205" width="230" height="30" as="geometry" />
        </mxCell>
        <mxCell id="fYqTDlpJ6KkWf2DXHgVO-9" value="&lt;span style=&quot;font-size: 10px;&quot;&gt;Socket(&quot;192.168.0.2&quot;, &lt;b&gt;&lt;font color=&quot;#009900&quot;&gt;8080&lt;/font&gt;&lt;/b&gt;)&lt;/span&gt;" style="text;html=1;align=left;verticalAlign=middle;resizable=0;points=[];autosize=1;strokeColor=none;fillColor=none;fontFamily=Courier New;" vertex="1" parent="1">
          <mxGeometry x="133" y="291" width="190" height="30" as="geometry" />
        </mxCell>
        <mxCell id="fYqTDlpJ6KkWf2DXHgVO-10" value="" style="curved=1;endArrow=classic;html=1;rounded=0;sketch=1;curveFitting=1;jiggle=2;strokeWidth=1;" edge="1" parent="1">
          <mxGeometry width="50" height="50" relative="1" as="geometry">
            <mxPoint x="129" y="305" as="sourcePoint" />
            <mxPoint x="144" y="250" as="targetPoint" />
            <Array as="points">
              <mxPoint x="92" y="281" />
              <mxPoint x="97" y="241" />
            </Array>
          </mxGeometry>
        </mxCell>
        <mxCell id="fYqTDlpJ6KkWf2DXHgVO-11" value="Intenta conectarse al servidor" style="text;html=1;align=left;verticalAlign=middle;resizable=0;points=[];autosize=1;strokeColor=none;fillColor=none;fontFamily=Architects Daughter;" vertex="1" parent="1">
          <mxGeometry x="150" y="237" width="190" height="30" as="geometry" />
        </mxCell>
        <mxCell id="fYqTDlpJ6KkWf2DXHgVO-12" value="&lt;span style=&quot;font-size: 10px;&quot;&gt;OutputStream&lt;/span&gt;&lt;br&gt;&lt;div&gt;&lt;span style=&quot;font-size: 10px;&quot;&gt;&lt;br&gt;&lt;/span&gt;&lt;/div&gt;&lt;div&gt;&lt;span style=&quot;font-size: 10px;&quot;&gt;InputStream&lt;/span&gt;&lt;/div&gt;" style="text;html=1;align=left;verticalAlign=middle;resizable=0;points=[];autosize=1;strokeColor=none;fillColor=none;fontFamily=Courier New;" vertex="1" parent="1">
          <mxGeometry x="133" y="326" width="100" height="60" as="geometry" />
        </mxCell>
        <mxCell id="fYqTDlpJ6KkWf2DXHgVO-13" value="" style="endArrow=open;html=1;rounded=0;flowAnimation=1;endFill=0;" edge="1" parent="1">
          <mxGeometry width="50" height="50" relative="1" as="geometry">
            <mxPoint x="212" y="342" as="sourcePoint" />
            <mxPoint x="413" y="343" as="targetPoint" />
          </mxGeometry>
        </mxCell>
        <mxCell id="fYqTDlpJ6KkWf2DXHgVO-14" value="" style="endArrow=none;html=1;rounded=0;flowAnimation=1;endFill=0;startArrow=open;startFill=0;" edge="1" parent="1">
          <mxGeometry width="50" height="50" relative="1" as="geometry">
            <mxPoint x="212" y="370" as="sourcePoint" />
            <mxPoint x="413" y="371" as="targetPoint" />
          </mxGeometry>
        </mxCell>
        <mxCell id="fYqTDlpJ6KkWf2DXHgVO-15" value="&lt;b&gt;Petición&lt;/b&gt;" style="text;html=1;align=center;verticalAlign=middle;resizable=0;points=[];autosize=1;strokeColor=none;fillColor=none;fontFamily=Architects Daughter;" vertex="1" parent="1">
          <mxGeometry x="273" y="318" width="70" height="30" as="geometry" />
        </mxCell>
        <mxCell id="fYqTDlpJ6KkWf2DXHgVO-16" value="&lt;b&gt;Respuesta&lt;/b&gt;" style="text;html=1;align=center;verticalAlign=middle;resizable=0;points=[];autosize=1;strokeColor=none;fillColor=none;fontFamily=Architects Daughter;" vertex="1" parent="1">
          <mxGeometry x="268" y="347" width="80" height="30" as="geometry" />
        </mxCell>
        <mxCell id="fYqTDlpJ6KkWf2DXHgVO-17" value="&lt;b&gt;Servidor&lt;/b&gt;&lt;br&gt;192.168.0.2&lt;b&gt;:&lt;font color=&quot;#009900&quot;&gt;8080&lt;/font&gt;&lt;/b&gt;" style="verticalLabelPosition=bottom;sketch=0;aspect=fixed;html=1;verticalAlign=top;strokeColor=none;align=center;outlineConnect=0;shape=mxgraph.citrix.license_server;" vertex="1" parent="1">
          <mxGeometry x="530" y="307" width="58.88" height="77" as="geometry" />
        </mxCell>
      </root>
    </mxGraphModel>
  </diagram>
  <diagram id="nJBkDr1q4rw1ynKEpilC" name="black-box">
    <mxGraphModel dx="683" dy="355" grid="1" gridSize="10" guides="1" tooltips="1" connect="1" arrows="1" fold="1" page="1" pageScale="1" pageWidth="827" pageHeight="1169" math="0" shadow="0">
      <root>
        <mxCell id="0" />
        <mxCell id="1" parent="0" />
        <mxCell id="DFfoQ5d_77l1mBqGRYvb-2" value="" style="rounded=0;whiteSpace=wrap;html=1;strokeColor=none;fillColor=#f5f5f5;fontColor=#333333;" vertex="1" parent="1">
          <mxGeometry x="120" y="152" width="286" height="70" as="geometry" />
        </mxCell>
        <mxCell id="DFfoQ5d_77l1mBqGRYvb-1" value="" style="rounded=0;whiteSpace=wrap;html=1;strokeColor=none;fillColor=#f5f5f5;fontColor=#333333;" vertex="1" parent="1">
          <mxGeometry x="120" y="56" width="286" height="70" as="geometry" />
        </mxCell>
        <mxCell id="HcbzJZznUUshPE-qYFJ9-3" value="Entrada" style="text;html=1;align=center;verticalAlign=middle;resizable=0;points=[];autosize=1;strokeColor=none;fillColor=none;fontFamily=Architects Daughter;" vertex="1" parent="1">
          <mxGeometry x="127" y="63" width="70" height="30" as="geometry" />
        </mxCell>
        <mxCell id="HcbzJZznUUshPE-qYFJ9-1" value="función" style="rounded=0;whiteSpace=wrap;html=1;fillColor=#707980;strokeColor=none;shadow=1;fontColor=#FCFCFC;" vertex="1" parent="1">
          <mxGeometry x="200" y="70" width="120" height="40" as="geometry" />
        </mxCell>
        <mxCell id="HcbzJZznUUshPE-qYFJ9-2" value="" style="endArrow=classic;html=1;rounded=0;entryX=0;entryY=0.5;entryDx=0;entryDy=0;flowAnimation=1;" edge="1" parent="1" target="HcbzJZznUUshPE-qYFJ9-1">
          <mxGeometry width="50" height="50" relative="1" as="geometry">
            <mxPoint x="130" y="90" as="sourcePoint" />
            <mxPoint x="180" y="60" as="targetPoint" />
          </mxGeometry>
        </mxCell>
        <mxCell id="HcbzJZznUUshPE-qYFJ9-4" value="" style="endArrow=classic;html=1;rounded=0;entryX=0;entryY=0.5;entryDx=0;entryDy=0;flowAnimation=1;" edge="1" parent="1">
          <mxGeometry width="50" height="50" relative="1" as="geometry">
            <mxPoint x="323" y="90" as="sourcePoint" />
            <mxPoint x="393" y="90" as="targetPoint" />
          </mxGeometry>
        </mxCell>
        <mxCell id="HcbzJZznUUshPE-qYFJ9-5" value="Salida" style="text;html=1;align=center;verticalAlign=middle;resizable=0;points=[];autosize=1;strokeColor=none;fillColor=none;fontFamily=Architects Daughter;" vertex="1" parent="1">
          <mxGeometry x="330" y="63" width="50" height="30" as="geometry" />
        </mxCell>
        <mxCell id="HcbzJZznUUshPE-qYFJ9-6" value="Entrada" style="text;html=1;align=center;verticalAlign=middle;resizable=0;points=[];autosize=1;strokeColor=none;fillColor=none;fontFamily=Architects Daughter;" vertex="1" parent="1">
          <mxGeometry x="127" y="160" width="70" height="30" as="geometry" />
        </mxCell>
        <mxCell id="HcbzJZznUUshPE-qYFJ9-7" value="procedimiento" style="rounded=0;whiteSpace=wrap;html=1;fillColor=#707980;strokeColor=none;shadow=1;fontColor=#FCFCFC;" vertex="1" parent="1">
          <mxGeometry x="200" y="167" width="120" height="40" as="geometry" />
        </mxCell>
        <mxCell id="HcbzJZznUUshPE-qYFJ9-8" value="" style="endArrow=classic;html=1;rounded=0;entryX=0;entryY=0.5;entryDx=0;entryDy=0;flowAnimation=1;" edge="1" target="HcbzJZznUUshPE-qYFJ9-7" parent="1">
          <mxGeometry width="50" height="50" relative="1" as="geometry">
            <mxPoint x="130" y="187" as="sourcePoint" />
            <mxPoint x="180" y="157" as="targetPoint" />
          </mxGeometry>
        </mxCell>
      </root>
    </mxGraphModel>
  </diagram>
  <diagram id="ofAYvuSIE4w-UknBW4jj" name="Página-4">
    <mxGraphModel dx="1434" dy="746" grid="1" gridSize="10" guides="1" tooltips="1" connect="1" arrows="1" fold="1" page="1" pageScale="1" pageWidth="827" pageHeight="1169" math="0" shadow="0">
      <root>
        <mxCell id="0" />
        <mxCell id="1" parent="0" />
        <mxCell id="SaxmnPy5Ap8-jIpTIfMr-1" value="" style="rounded=0;whiteSpace=wrap;html=1;strokeColor=none;fillColor=#f5f5f5;fontColor=#333333;" vertex="1" parent="1">
          <mxGeometry x="120" y="152" width="286" height="70" as="geometry" />
        </mxCell>
        <mxCell id="SaxmnPy5Ap8-jIpTIfMr-2" value="Entrada" style="text;html=1;align=center;verticalAlign=middle;resizable=0;points=[];autosize=1;strokeColor=none;fillColor=none;fontFamily=Architects Daughter;" vertex="1" parent="1">
          <mxGeometry x="127" y="160" width="70" height="30" as="geometry" />
        </mxCell>
        <mxCell id="SaxmnPy5Ap8-jIpTIfMr-3" value="procedimiento" style="rounded=0;whiteSpace=wrap;html=1;fillColor=#707980;strokeColor=none;shadow=1;fontColor=#FCFCFC;" vertex="1" parent="1">
          <mxGeometry x="200" y="167" width="120" height="40" as="geometry" />
        </mxCell>
        <mxCell id="SaxmnPy5Ap8-jIpTIfMr-4" value="" style="endArrow=classic;html=1;rounded=0;entryX=0;entryY=0.5;entryDx=0;entryDy=0;flowAnimation=1;" edge="1" parent="1" target="SaxmnPy5Ap8-jIpTIfMr-3">
          <mxGeometry width="50" height="50" relative="1" as="geometry">
            <mxPoint x="130" y="187" as="sourcePoint" />
            <mxPoint x="180" y="157" as="targetPoint" />
          </mxGeometry>
        </mxCell>
      </root>
    </mxGraphModel>
  </diagram>
</mxfile>
